<svg width="18" height="18" viewBox="0 0 18 18" fill="none" xmlns="http://www.w3.org/2000/svg">
<g clip-path="url(#clip0)">
<path fill-rule="evenodd" clip-rule="evenodd" d="M9 0C4.02763 0 0 4.12894 0 9.22642C0 13.3044 2.58011 16.7593 6.15469 17.9827C6.60221 18.0676 6.76796 17.7844 6.76796 17.5353C6.76796 17.3143 6.76243 16.7367 6.75691 15.9664C4.25414 16.5214 3.72376 14.7317 3.72376 14.7317C3.31492 13.6669 2.72376 13.378 2.72376 13.378C1.90608 12.8059 2.78453 12.8173 2.78453 12.8173C3.68508 12.8852 4.16575 13.7688 4.16575 13.7688C4.96685 15.1791 6.27072 14.7713 6.78453 14.5334C6.8674 13.9387 7.09945 13.5309 7.35359 13.2987C5.35912 13.0721 3.25967 12.2792 3.25967 8.745C3.25967 7.73685 3.60773 6.91556 4.18784 6.26988C4.09392 6.032 3.78453 5.09747 4.27072 3.82876C4.27072 3.82876 5.02762 3.57955 6.74585 4.77462C7.46409 4.57072 8.23207 4.46878 9 4.46311C9.76245 4.46878 10.5359 4.57072 11.2541 4.77462C12.9724 3.57955 13.7293 3.82876 13.7293 3.82876C14.221 5.09747 13.9116 6.03766 13.8177 6.26988C14.3923 6.91556 14.7403 7.73685 14.7403 8.745C14.7403 12.2905 12.6353 13.0665 10.6298 13.2987C10.9503 13.5819 11.2431 14.1483 11.2431 15.0092C11.2431 16.244 11.2321 17.2351 11.2321 17.5409C11.2321 17.7901 11.3923 18.0733 11.8508 17.9827C15.4254 16.7593 18 13.3044 18 9.23205C18 4.12894 13.9723 0 9 0Z" fill="white"/>
</g>
<defs>
<clipPath id="clip0">
<rect width="18" height="18" fill="white"/>
</clipPath>
</defs>
</svg>
