<svg width="158" height="45" viewBox="0 0 158 45" fill="none" xmlns="http://www.w3.org/2000/svg">
<path d="M2.08503 23.6143C2.45883 21.8388 4.18761 20.11 5.9164 20.4838C5.86968 20.9978 5.68278 21.3716 5.58933 21.5584C5.26227 22.1659 5.68278 22.3528 6.15002 22.1659C6.57054 22.0257 7.55174 21.6986 7.55174 20.9043C7.50502 20.4371 7.0845 19.8764 6.47709 19.5493C5.86968 19.2223 5.26227 19.1288 4.7483 19.1288C3.72037 19.1288 2.87934 19.5493 2.22521 20.0633C1.15055 20.951 0.589866 22.2126 0.543142 23.5209C0.40297 26.5579 3.06624 28.3802 5.77623 28.3802C11.4766 28.0531 14.5603 24.3619 15.3079 22.9602C15.635 22.3528 15.3079 21.5585 15.0276 21.7453C12.2241 24.2217 8.86001 26.6981 4.98192 26.9784C2.87934 26.9784 1.66452 25.6234 2.08503 23.6143Z" fill="white"/>
<path d="M27.9741 22.2126C29.0955 21.8388 29.4226 21.2314 28.0676 21.2781C27.6471 21.2781 25.8248 21.465 23.6288 21.465C22.5542 21.465 21.3393 21.4183 20.1712 21.2781C19.4704 20.4371 18.4424 19.8297 17.1809 19.6428C16.2464 19.596 15.9194 20.11 15.7325 20.7641C15.639 20.7641 15.5923 20.8109 15.4988 20.8109C14.4242 21.1847 13.2094 23.4274 13.5364 25.3898C13.77 26.6981 14.9381 28.1465 16.6669 28.24C18.8162 28.3802 20.7319 27.2121 21.1524 24.8759C21.2926 24.175 21.2459 23.4741 21.059 22.8667C23.9092 23.0069 26.9462 22.5864 27.9741 22.2126ZM16.4333 21.8388L16.5268 21.7453C17.1809 22.1659 18.0687 22.4462 19.1433 22.6331C19.8909 24.3152 18.863 26.9784 16.8071 27.0719C15.9194 27.1186 15.4054 26.6046 15.1718 25.2496C14.9381 23.9414 15.8259 22.306 16.4333 21.8388Z" fill="white"/>
<path d="M28.7214 25.9972C28.8615 26.5579 30.0764 27.4924 30.4501 27.1653C32.2724 25.5767 33.5807 23.1003 35.9636 21.5584C36.3841 23.3807 36.6644 24.4553 37.1317 25.4833C37.412 25.9972 38.2998 26.4645 38.6736 26.2776C39.9351 25.4365 41.1032 24.5021 43.2058 22.7733C43.346 23.1938 43.5796 23.7078 43.9067 24.175C44.3272 24.7357 44.7944 25.2964 45.4953 25.7636C46.5232 26.4177 47.6446 26.6981 48.6258 26.6981C51.2891 26.6981 54.3261 24.4086 55.027 23.1471C55.5877 22.1191 54.9802 21.7453 54.8401 21.979C54.1859 23.1003 49.093 25.3898 47.5979 25.3898C46.9437 25.3898 46.383 25.1562 45.8691 24.8291C44.9346 24.0348 44.701 22.3528 44.2337 21.4183C43.9067 20.9043 43.0189 20.4371 42.6918 20.6707L38.1596 24.3619C37.7391 22.7265 37.6924 21.7453 37.1784 20.5305C36.8046 20.0166 36.0103 19.5493 35.6365 19.7362C33.6274 20.7174 32.0388 22.5864 30.4034 24.3619C30.3567 22.82 30.5436 21.979 30.4969 20.7641C30.637 20.1567 29.0952 19.1288 28.955 19.9231C28.7681 21.0912 28.6279 22.4462 28.6279 23.9414C28.6279 24.5955 28.6746 25.2964 28.7214 25.9972Z" fill="white"/>
<path d="M53.3588 44.0327C53.4522 44.9205 54.9941 45.3877 55.0408 44.5934C54.7138 42.2572 54.7138 39.5939 54.6203 36.7905C54.7605 31.9312 54.8539 28.8007 55.3679 26.6514L55.7417 26.885C56.5827 27.399 58.4984 27.8662 60.0403 27.4457H60.2739C63.8249 27.5858 67.4227 25.7169 69.8056 23.2872C70.2729 22.7733 70.8335 21.1379 70.2729 21.5584C68.6375 23.0069 64.7594 25.2964 61.8158 25.9038C62.47 25.1095 63.1241 23.9881 63.2175 22.9134C63.5446 20.2969 60.601 19.3157 58.732 19.8297C57.377 20.2035 55.9286 21.1847 54.7138 23.0536C54.8539 19.8764 54.9474 17.6804 55.0408 16.5123C55.0876 16.1852 54.7605 15.7647 54.2933 15.5311C53.8727 15.2974 53.4522 15.2974 53.4055 15.6245C53.0317 18.241 52.9383 26.2309 52.9383 36.8372C53.0784 39.3603 53.1719 42.0703 53.3588 44.0327ZM58.9657 26.044C58.2181 25.9505 55.9753 25.8571 55.4614 25.5767V25.4365C55.7417 24.1283 59.0591 19.9698 61.1617 21.1847C62.6569 22.0724 60.601 25.5767 58.9657 26.044Z" fill="white"/>
<path d="M82.5007 22.2126C83.622 21.8388 83.9491 21.2314 82.5941 21.2781C82.1736 21.2781 80.3514 21.465 78.1553 21.465C77.0807 21.465 75.8659 21.4183 74.6978 21.2781C73.9969 20.4371 72.969 19.8297 71.7074 19.6428C70.7729 19.596 70.4459 20.11 70.259 20.7641C70.1655 20.7641 70.1188 20.8109 70.0254 20.8109C68.9507 21.1847 67.7359 23.4274 68.063 25.3898C68.2966 26.6981 69.4647 28.1465 71.1935 28.24C73.3428 28.3802 75.2584 27.2121 75.679 24.8759C75.8191 24.175 75.7724 23.4741 75.5855 22.8667C78.4357 23.0069 81.4727 22.5864 82.5007 22.2126ZM70.9598 21.8388L71.0533 21.7453C71.7074 22.1659 72.5952 22.4462 73.6698 22.6331C74.4174 24.3152 73.3895 26.9784 71.3336 27.0719C70.4459 27.1186 69.9319 26.6046 69.6983 25.2496C69.4647 23.9414 70.3524 22.306 70.9598 21.8388Z" fill="white"/>
<path d="M82.5927 27.9596C83.2935 28.24 84.4149 28.3802 85.583 28.3802C86.7978 28.3802 88.0126 28.24 88.8537 28.0064C90.0685 27.6793 90.9563 26.371 89.9283 25.4833C88.9938 24.7357 87.5921 24.0348 85.8166 23.0536C84.8821 22.4929 83.8075 22.0257 84.0878 21.3716C84.6018 20.1567 88.8537 19.3624 90.5825 18.755C90.9563 18.2878 90.0218 17.4 89.2742 17.4935C86.8913 17.8205 81.7984 19.3157 82.1721 21.7921C82.359 23.1938 83.6673 23.661 84.8821 24.3619C85.8166 24.8759 87.5921 25.7636 88.7602 26.371C87.5454 26.6514 85.6764 26.885 84.1813 26.885C83.5739 26.885 83.0599 26.8383 82.6394 26.7448C81.6115 26.5112 82.032 27.6793 82.5927 27.9596Z" fill="white"/>
<path d="M94.9125 27.0252C95.4264 27.3522 95.9871 27.4924 96.5945 27.4924C99.0709 27.4924 102.155 25.1095 103.463 23.9414C104.07 25.6234 105.238 26.5112 106.78 26.885C108.743 27.3522 111.967 25.8571 113.135 24.689C115.705 22.1191 115.004 20.951 114.209 21.7453C112.527 23.6143 108.509 25.9972 106.126 25.53C105.285 25.2964 105.052 24.3619 105.098 23.5676C105.192 22.6798 105.612 21.8388 105.846 21.1379C106.173 20.5772 104.584 19.5493 104.304 20.0633L103.51 21.1379H103.463C102.295 20.624 100.987 20.3436 99.6783 20.3436C98.043 20.3436 96.4544 20.7641 95.1928 21.6052C94.0247 22.3995 93.5107 23.4274 93.5107 24.4553C93.5107 25.4365 93.978 26.3243 94.9125 27.0252ZM95.7535 25.9972C95.0526 25.9505 94.7723 25.4365 94.9125 24.8759C95.4264 22.7265 98.5102 21.8388 100.846 21.8388C101.547 21.8388 102.201 21.9322 102.669 22.0724C101.033 23.8012 97.9962 25.7169 95.7535 25.9972Z" fill="white"/>
<path d="M115.069 29.1277C115.536 29.3614 115.77 29.2212 115.816 29.2212C115.91 29.1745 115.957 29.081 116.003 29.081C116.05 28.9408 116.143 28.7072 116.097 28.3802L116.377 27.0719L116.517 26.6046L116.611 26.6514C117.639 27.3522 120.349 27.4924 121.096 27.3522L121.283 27.3055H121.657C125.769 27.2588 129.086 25.4833 130.815 23.1471C131.235 22.5397 131.516 21.0912 131.048 21.5584C129.413 23.0069 125.675 25.1095 123.386 25.4833L123.713 24.7357C123.9 24.175 124.04 23.5209 124.04 22.82C124.04 21.7453 123.713 20.624 122.731 19.7362L122.498 19.5493C122.124 19.1755 121.563 18.9419 121.143 18.8952C119.087 18.5214 116.097 22.3995 115.302 24.3152C115.069 21.9322 115.022 18.9419 115.022 15.9048C115.022 9.784 115.209 3.61644 115.77 1.9811C115.91 1.70075 115.629 1.23351 115.256 0.953171C114.788 0.672826 114.321 0.672825 114.181 0.906445C113.574 2.58851 113.34 8.10194 113.34 13.6621V15.1573C113.34 18.1943 113.433 21.1847 113.527 23.5676L113.901 26.5579C114.041 27.3055 114.134 27.9129 114.321 28.24C114.321 28.2867 114.321 28.3802 114.461 28.5203C114.461 28.567 114.742 28.8941 115.069 29.1277ZM116.891 25.6702L116.798 25.6234C118.853 22.6331 120.068 20.7641 121.657 20.2502H121.75L121.89 20.4371C122.171 20.7174 122.311 21.1847 122.311 21.8388C122.311 24.0348 120.442 25.9505 118.293 25.9505C117.825 25.9505 117.358 25.8571 116.891 25.6702Z" fill="white"/>
<path d="M135.262 30.7631C138.206 30.7631 141.944 25.7169 142.785 23.3807C142.972 22.82 142.878 21.6519 142.411 22.306C141.71 23.1938 136.057 30.8098 133.627 29.3146C132.599 28.6138 132.225 25.2964 132.225 21.1379C132.225 13.0547 133.58 1.84093 133.861 0.953171C133.861 0.719549 133.487 0.345758 133.02 0.112138C132.552 -0.074758 132.272 -0.0280352 132.225 0.252308C131.618 2.21472 130.31 12.2604 130.31 20.0166C130.31 23.8947 130.637 27.2121 131.524 28.6138C132.459 29.922 133.767 30.7631 135.262 30.7631Z" fill="white"/>
<path d="M149.403 28.4269C152.627 28.24 155.618 25.9505 156.926 23.2405C157.58 21.9322 157.767 20.8576 156.692 21.979C154.73 24.0348 151.459 27.3055 147.067 27.3055C145.432 27.3055 143.796 25.8103 143.656 24.9226C145.292 24.9226 147.301 23.8012 147.908 22.306C148.422 20.951 147.067 19.5493 145.619 19.5493C143.329 19.6428 141.927 21.7453 141.927 23.8012C141.927 24.2684 142.021 24.7357 142.161 25.1562C143.095 28.0531 146.647 28.567 149.403 28.4269ZM146.366 21.1379C146.88 21.6519 145.572 22.9134 143.609 23.8012C143.563 22.6331 145.385 20.1567 146.366 21.1379Z" fill="white"/>
</svg>
