<svg width="18" height="18" viewBox="0 0 18 18" fill="none" xmlns="http://www.w3.org/2000/svg">
<path d="M7.67029 7.7926C7.25151 7.7926 6.9209 8.1676 6.9209 8.6251C6.9209 9.0826 7.25886 9.4576 7.67029 9.4576C8.08906 9.4576 8.41967 9.0826 8.41967 8.6251C8.42702 8.1676 8.08906 7.7926 7.67029 7.7926ZM10.3519 7.7926C9.93314 7.7926 9.60253 8.1676 9.60253 8.6251C9.60253 9.0826 9.94049 9.4576 10.3519 9.4576C10.7707 9.4576 11.1013 9.0826 11.1013 8.6251C11.1013 8.1676 10.7707 7.7926 10.3519 7.7926Z" fill="white"/>
<path d="M13.9224 1.5H4.07753C3.24733 1.5 2.57141 2.19 2.57141 3.045V13.185C2.57141 14.04 3.24733 14.73 4.07753 14.73H12.409L12.0196 13.3425L12.96 14.235L13.849 15.075L15.4286 16.5V3.045C15.4286 2.19 14.7526 1.5 13.9224 1.5ZM11.0865 11.295C11.0865 11.295 10.822 10.9725 10.6016 10.6875C11.5641 10.41 11.9314 9.795 11.9314 9.795C11.6302 9.9975 11.3437 10.14 11.0865 10.2375C10.7192 10.395 10.3665 10.5 10.0212 10.56C9.3159 10.695 8.66937 10.6575 8.11835 10.5525C7.69957 10.47 7.33957 10.35 7.03835 10.23C6.86937 10.1625 6.6857 10.08 6.50202 9.975C6.47998 9.96 6.45794 9.9525 6.4359 9.9375C6.42121 9.93 6.41386 9.9225 6.40651 9.915C6.27427 9.84 6.2008 9.7875 6.2008 9.7875C6.2008 9.7875 6.55345 10.3875 7.48651 10.6725C7.2661 10.9575 6.99427 11.295 6.99427 11.295C5.37059 11.2425 4.75345 10.155 4.75345 10.155C4.75345 7.74 5.81141 5.7825 5.81141 5.7825C6.86937 4.9725 7.8759 4.995 7.8759 4.995L7.94937 5.085C6.62692 5.475 6.01713 6.0675 6.01713 6.0675C6.01713 6.0675 6.17876 5.9775 6.45059 5.85C7.23672 5.4975 7.86121 5.4 8.11835 5.3775C8.16243 5.37 8.19917 5.3625 8.24325 5.3625C8.69141 5.3025 9.19835 5.2875 9.72733 5.3475C10.4253 5.43 11.1747 5.64 11.9388 6.0675C11.9388 6.0675 11.3584 5.505 10.1094 5.115L10.2122 4.995C10.2122 4.995 11.2188 4.9725 12.2767 5.7825C12.2767 5.7825 13.3347 7.74 13.3347 10.155C13.3347 10.155 12.7102 11.2425 11.0865 11.295V11.295Z" fill="white"/>
</svg>
