<svg width="18" height="18" viewBox="0 0 18 18" fill="none" xmlns="http://www.w3.org/2000/svg">
<g clip-path="url(#clip0)">
<path d="M10.1872 9.05542C10.1872 11.8742 7.92899 14.1594 5.14321 14.1594C2.35744 14.1594 0.0993652 11.8749 0.0993652 9.05542C0.0993652 6.23589 2.35761 3.95154 5.14321 3.95154C7.92882 3.95154 10.1872 6.23658 10.1872 9.05542Z" fill="white"/>
<path d="M15.7205 9.055C15.7205 11.7086 14.5913 13.8595 13.1985 13.8595C11.8057 13.8595 10.6765 11.7079 10.6765 9.055C10.6765 6.40213 11.8057 4.25049 13.1985 4.25049C14.5913 4.25049 15.7205 6.40213 15.7205 9.055Z" fill="white"/>
<path d="M17.9838 9.05492C17.9838 11.4324 17.5866 13.3595 17.0968 13.3595C16.6069 13.3595 16.2097 11.4317 16.2097 9.05492C16.2097 6.67811 16.6069 4.75024 17.097 4.75024C17.587 4.75024 17.9838 6.6776 17.9838 9.05492Z" fill="white"/>
</g>
<defs>
<clipPath id="clip0">
<rect width="18" height="10.5" fill="white" transform="translate(0 3.75)"/>
</clipPath>
</defs>
</svg>
